<?xml version="1.0" encoding="UTF-8" standalone="no"?>
<!-- Created with Inkscape (http://www.inkscape.org/) -->

<svg
   xmlns:dc="http://purl.org/dc/elements/1.1/"
   xmlns:cc="http://creativecommons.org/ns#"
   xmlns:rdf="http://www.w3.org/1999/02/22-rdf-syntax-ns#"
   xmlns:svg="http://www.w3.org/2000/svg"
   xmlns="http://www.w3.org/2000/svg"
   xmlns:xlink="http://www.w3.org/1999/xlink"
   xmlns:sodipodi="http://sodipodi.sourceforge.net/DTD/sodipodi-0.dtd"
   xmlns:inkscape="http://www.inkscape.org/namespaces/inkscape"
   width="64"
   height="64"
   id="svg4188"
   version="1.1"
   inkscape:version="0.91 r13725"
   viewBox="0 0 64 64"
   sodipodi:docname="dropstar.svg">
  <defs
     id="defs4190">
    <linearGradient
       inkscape:collect="always"
       id="linearGradient4747">
      <stop
         style="stop-color:#ee9e62;stop-opacity:1;"
         offset="0"
         id="stop4749" />
      <stop
         style="stop-color:#915223;stop-opacity:0.93725491"
         offset="1"
         id="stop4751" />
    </linearGradient>
    <radialGradient
       inkscape:collect="always"
       xlink:href="#linearGradient4747"
       id="radialGradient5167"
       cx="32.461514"
       cy="31.497826"
       fx="32.461514"
       fy="31.497826"
       r="30.657572"
       gradientTransform="matrix(-0.38330541,0.18813195,-0.28990807,-0.59066699,54.03566,43.995504)"
       gradientUnits="userSpaceOnUse" />
  </defs>
  <sodipodi:namedview
     id="base"
     pagecolor="#ffffff"
     bordercolor="#666666"
     borderopacity="1.0"
     inkscape:pageopacity="0.0"
     inkscape:pageshadow="2"
     inkscape:zoom="5.5"
     inkscape:cx="1.2727273"
     inkscape:cy="32"
     inkscape:current-layer="layer1"
     showgrid="true"
     inkscape:document-units="px"
     inkscape:grid-bbox="true"
     inkscape:window-width="1366"
     inkscape:window-height="711"
     inkscape:window-x="0"
     inkscape:window-y="0"
     inkscape:window-maximized="1" />
  <metadata
     id="metadata4193">
    <rdf:RDF>
      <cc:Work
         rdf:about="">
        <dc:format>image/svg+xml</dc:format>
        <dc:type
           rdf:resource="http://purl.org/dc/dcmitype/StillImage" />
        <dc:title></dc:title>
      </cc:Work>
    </rdf:RDF>
  </metadata>
  <g
     id="layer1"
     inkscape:label="Layer 1"
     inkscape:groupmode="layer">
    <path
       style="fill:#aa87de;fill-opacity:1;fill-rule:evenodd;stroke:url(#radialGradient5167);stroke-width:0.76200002;stroke-linecap:square;stroke-linejoin:round;stroke-miterlimit:4;stroke-dasharray:none;stroke-dashoffset:0;stroke-opacity:1;opacity:1"
       inkscape:transform-center-x="-14.657613"
       inkscape:transform-center-y="-8.3835991"
       d="M 32.457987,30.403534 C 42.155861,29.344709 24.563753,0.6434392 34.303638,1.1952729 44.043522,1.7471067 23.32214,28.277644 32.838356,30.425084 42.354573,32.572524 35.03494,-0.28577957 44.067911,3.3986897 53.100882,7.083159 24.887789,25.447976 33.191118,30.568972 41.494447,35.689968 45.240487,2.2353381 52.587681,8.6531736 59.934875,15.071009 27.287399,23.279994 33.478047,30.819607 39.668694,38.35922 54.074464,7.9335907 58.939699,16.389321 63.804934,24.84505 30.260935,22.00863 33.668047,31.149826 c 3.407112,9.141196 26.911524,-14.958342 28.767576,-5.381028 1.856052,9.577314 -28.949456,-3.997139 -28.695092,5.755049 0.254364,9.752189 30.310349,-5.409701 28.956086,4.251347 -1.354262,9.661048 -26.083024,-13.180437 -29.008973,-3.874058 -2.925949,9.30638 30.424578,4.725168 26.006755,13.423025 C 55.276577,54.022018 39.304305,24.388732 33.515116,32.240813 27.725927,40.092893 60.756947,46.5888 53.754305,53.380919 46.751663,60.173037 41.266725,26.959178 33.241644,32.506064 25.216563,38.05295 54.348653,54.922045 45.520036,59.072394 36.691419,63.222743 42.288193,30.027544 32.896861,32.668145 23.50553,35.308747 45.581779,60.723004 35.883904,61.781829 26.186029,62.840653 42.258017,33.261331 32.518133,32.709497 22.778248,32.157663 35.406349,63.36305 25.890132,61.21561 16.373915,59.06817 41.179469,36.310101 32.146498,32.625632 23.113526,28.941163 24.92503,62.556095 16.621701,57.435099 8.3183711,52.314102 39.169425,38.84348 31.822231,32.425644 24.475037,26.007808 15.273636,58.389584 9.0829888,50.849971 2.8923416,43.310357 36.445704,40.586931 31.580469,32.131201 26.715234,23.675471 7.498045,51.315023 4.0909328,42.173826 0.68382062,33.03263 33.303464,41.351526 31.447412,31.774212 29.59136,22.196898 2.4408633,42.099052 2.1864991,32.346863 1.9321349,22.594675 30.083215,41.05441 31.437478,31.393362 32.79174,21.732314 0.65011452,31.740363 3.5760628,22.433984 6.5020111,13.127604 27.133921,39.727781 31.551743,31.029923 35.969566,22.332066 2.3198541,21.361481 8.1090431,13.509401 13.898232,5.6573204 24.775185,37.515396 31.777827,30.723277 38.780469,23.931158 7.2691401,12.087119 15.294221,6.5402331 23.319302,0.99334674 23.262611,34.657005 32.091229,30.506656 40.919846,26.356307 14.96164,4.922299 24.352972,2.2816977 33.744303,-0.35890358 22.760112,31.462358 32.457987,30.403534 Z"
       id="path4736"
       inkscape:connector-curvature="0"
       sodipodi:nodetypes="ccccccccccccccccccccccccccccccccccccccc" />
  </g>
</svg>
